<svg width="39" height="40" viewBox="0 0 39 40" fill="none" xmlns="http://www.w3.org/2000/svg">
<path d="M38.041 29.5834L28.4577 39.1667L21.7493 32.4584L24.6243 29.5834L28.4577 33.4167L35.166 26.7084L38.041 29.5834ZM4.49935 0.833374C2.37185 0.833374 0.666016 2.53921 0.666016 4.66671V35.3334C0.666016 37.4609 2.37185 39.1667 4.49935 39.1667H19.4685C18.4527 37.4225 17.916 35.4292 17.916 33.4167C17.916 32.7842 17.9735 32.1325 18.0693 31.5H4.49935V27.6667H19.4685C20.3502 26.1334 21.5768 24.7917 23.0527 23.8334H4.49935V20H27.4993V22.07C28.1318 21.9742 28.7835 21.9167 29.416 21.9167C30.0677 21.9167 30.7002 21.9742 31.3327 22.07V12.3334L19.8327 0.833374M17.916 3.70837L28.4577 14.25H17.916V3.70837Z" fill="url(#paint0_linear_47_131)" fill-opacity="0.6"/>
<defs>
<linearGradient id="paint0_linear_47_131" x1="-9.05149" y1="-9.89996" x2="39.3442" y2="41.7797" gradientUnits="userSpaceOnUse">
<stop stop-color="#E62174"/>
<stop offset="1" stop-color="#EE7B65"/>
</linearGradient>
</defs>
</svg>
