<svg width="44" height="44" viewBox="0 0 44 44" fill="none" xmlns="http://www.w3.org/2000/svg">
<path d="M14.073 19.9015C14.1397 20.1503 14.2793 20.3734 14.474 20.542C14.6687 20.7107 14.9094 20.8171 15.1652 20.8477L22.3024 21.6986L23.1533 28.8358C23.216 29.3648 23.5981 29.7943 24.0995 29.928C24.3484 29.9944 24.6115 29.985 24.855 29.9007C25.0985 29.8165 25.3112 29.6614 25.4658 29.4553L29.7706 23.6998L36.3763 26.5312C36.8614 26.7386 37.4232 26.631 37.7961 26.258C38.1691 25.8851 38.2769 25.3234 38.0695 24.8382L35.2379 18.2325L40.9934 13.9277C41.1995 13.7731 41.3547 13.5604 41.4389 13.3169C41.5231 13.0734 41.5326 12.8103 41.4661 12.5614C41.33 12.0513 40.8955 11.6756 40.3739 11.6152L33.2369 10.7643L32.3859 3.62707C32.3557 3.3712 32.2493 3.13031 32.0806 2.93558C31.9118 2.74086 31.6885 2.60127 31.4396 2.53489C31.1907 2.46839 30.9276 2.47787 30.6841 2.5621C30.4406 2.64632 30.2279 2.80146 30.0733 3.00755L25.7687 8.76313L19.1628 5.93166C18.9259 5.8301 18.6641 5.80185 18.411 5.85054C18.1579 5.89924 17.9252 6.02265 17.743 6.20485C17.5608 6.38715 17.4374 6.61983 17.3887 6.8729C17.34 7.12598 17.3682 7.38784 17.4698 7.62471L20.3012 14.2304L14.5457 18.5352C14.3396 18.6898 14.1845 18.9025 14.1003 19.146C14.0161 19.3895 14.0066 19.6526 14.073 19.9015Z" fill="url(#paint0_linear_47_146)" fill-opacity="0.6"/>
<path d="M37.7952 8.02781L39.6182 6.20482C40.1221 5.70097 40.1221 4.88568 39.6182 4.38183C39.1145 3.87798 38.2991 3.87798 37.7952 4.38183L35.9722 6.20482C35.4684 6.70867 35.4684 7.52413 35.9722 8.02781C36.4761 8.53166 37.2914 8.53166 37.7952 8.02781ZM24.7663 5.02542C25.4543 4.84117 25.862 4.13433 25.6777 3.44632L25.0102 0.955681C24.8241 0.267581 24.1192 -0.140106 23.4311 0.0441439C22.7431 0.228394 22.3354 0.935228 22.5197 1.62324L23.1872 4.11388C23.3696 4.79536 24.0728 5.21018 24.7663 5.02542ZM30.7711 27.4373C30.083 27.6215 29.6753 28.3284 29.8596 29.0164L30.5272 31.507C30.7096 32.1885 31.4128 32.6033 32.1063 32.4185C32.7944 32.2343 33.2021 31.5275 33.0179 30.8394L32.3502 28.3488C32.165 27.6617 31.4584 27.2521 30.7711 27.4373ZM15.6513 11.6498L13.1607 10.9823C12.4726 10.7981 11.7657 11.2056 11.5815 11.8937C11.3966 12.5882 11.8125 13.2907 12.493 13.4728L14.9837 14.1404C15.6718 14.3247 16.3784 13.917 16.5628 13.2289C16.7461 12.5399 16.3366 11.8331 15.6513 11.6498ZM38.9746 19.2339C38.7898 19.9282 39.2056 20.6307 39.8862 20.813L42.3768 21.4804C43.0649 21.6647 43.7716 21.2572 43.9559 20.5691C44.1402 19.881 43.729 19.1724 43.0445 18.99L40.5539 18.3223C39.8657 18.1381 39.1589 18.5458 38.9746 19.2339ZM2.20092 43.6219C2.7046 44.1258 3.52006 44.1258 4.02391 43.6219L20.3695 27.2765L19.9812 24.0188L16.7237 23.6304L0.377759 39.976C-0.12592 40.4799 -0.12592 41.2952 0.377759 41.799L2.20092 43.6219Z" fill="url(#paint1_linear_47_146)" fill-opacity="0.6"/>
<defs>
<linearGradient id="paint0_linear_47_146" x1="6.88435" y1="-5.20343" x2="41.5099" y2="32.7198" gradientUnits="userSpaceOnUse">
<stop stop-color="#E62174"/>
<stop offset="1" stop-color="#EE7B65"/>
</linearGradient>
<linearGradient id="paint1_linear_47_146" x1="-11.44" y1="-12.3201" x2="43.9999" y2="48.3998" gradientUnits="userSpaceOnUse">
<stop stop-color="#E62174"/>
<stop offset="1" stop-color="#EE7B65"/>
</linearGradient>
</defs>
</svg>
