<svg width="38" height="40" viewBox="0 0 38 40" fill="none" xmlns="http://www.w3.org/2000/svg">
<path d="M8.5 10C8.5 4.76 12.76 0.5 18 0.5C23.24 0.5 27.5 4.76 27.5 10C27.5 15.24 23.24 19.5 18 19.5C12.76 19.5 8.5 15.24 8.5 10ZM25.5 36.5H24C21.52 36.5 19.5 34.48 19.5 32C19.5 29.52 21.52 27.5 24 27.5H25.5V26C25.5 24.78 25.98 23.68 26.78 22.86C25.88 22.62 24.96 22.5 24 22.5H12C5.66 22.5 0.5 27.66 0.5 34C0.5 37.04 2.96 39.5 6 39.5H25.76C25.6 39.04 25.5 38.52 25.5 38V36.5ZM34.5 37.16C34.64 36.94 34.78 36.74 34.9 36.5H34.5V37.16ZM36 30.5H31.5V26C31.5 25.6022 31.342 25.2206 31.0607 24.9393C30.7794 24.658 30.3978 24.5 30 24.5C29.6022 24.5 29.2206 24.658 28.9393 24.9393C28.658 25.2206 28.5 25.6022 28.5 26V30.5H24C23.6022 30.5 23.2206 30.658 22.9393 30.9393C22.658 31.2206 22.5 31.6022 22.5 32C22.5 32.3978 22.658 32.7794 22.9393 33.0607C23.2206 33.342 23.6022 33.5 24 33.5H28.5V38C28.5 38.3978 28.658 38.7794 28.9393 39.0607C29.2206 39.342 29.6022 39.5 30 39.5C30.3978 39.5 30.7794 39.342 31.0607 39.0607C31.342 38.7794 31.5 38.3978 31.5 38V33.5H36C36.3978 33.5 36.7794 33.342 37.0607 33.0607C37.342 32.7794 37.5 32.3978 37.5 32C37.5 31.6022 37.342 31.2206 37.0607 30.9393C36.7794 30.658 36.3978 30.5 36 30.5Z" fill="url(#paint0_linear_47_139)" fill-opacity="0.6"/>
<defs>
<linearGradient id="paint0_linear_47_139" x1="-9.12" y1="-10.42" x2="40.1873" y2="40.8138" gradientUnits="userSpaceOnUse">
<stop stop-color="#E62174"/>
<stop offset="1" stop-color="#EE7B65"/>
</linearGradient>
</defs>
</svg>
