<svg width="50" height="56" viewBox="0 0 50 56" fill="none" xmlns="http://www.w3.org/2000/svg">
<path d="M20.5752 9.33264H2.82755C0.850812 9.33264 -0.309219 11.5616 0.82489 13.1812C0.839437 13.203 0.447765 12.6691 15.0463 32.5413C15.6939 33.4805 15.5001 32.4757 15.5001 53.4305C15.5001 55.5354 17.9055 56.7509 19.6062 55.4857C25.8992 50.7419 27.4283 50.2076 27.4283 47.725C27.4283 33.0787 27.24 33.4722 27.8821 32.5413L30.9283 28.3934C23.2631 25.6048 18.6688 17.4988 20.5752 9.33264Z" fill="url(#paint0_linear_47_122)" fill-opacity="0.6"/>
<path d="M27.8379 3.2994C19.6265 10.6614 23.6067 23.7908 33.9588 25.8361C42.2143 27.5804 49.6205 21.0382 49.6205 13.0453C49.6205 1.82404 36.2369 -4.144 27.8379 3.2994ZM40.802 14.9811C41.8427 16.0164 41.099 17.7894 39.6423 17.7894C38.7658 17.7894 38.5462 17.3749 36.5293 15.3659C34.5535 17.3329 34.3123 17.7894 33.4152 17.7894C31.9551 17.7894 31.2208 16.0105 32.2555 14.9811L34.199 13.0453L32.2555 11.1094C30.7125 9.57436 33.0366 7.24609 34.576 8.78008L36.5293 10.7247L38.4815 8.78008C40.0209 7.24609 42.3459 9.57348 40.802 11.1094L38.8585 13.0453L40.802 14.9811Z" fill="url(#paint1_linear_47_122)" fill-opacity="0.6"/>
<defs>
<linearGradient id="paint0_linear_47_122" x1="-7.56393" y1="-3.7342" x2="48.3563" y2="36.3587" gradientUnits="userSpaceOnUse">
<stop stop-color="#E62174"/>
<stop offset="1" stop-color="#EE7B65"/>
</linearGradient>
<linearGradient id="paint1_linear_47_122" x1="16.6275" y1="-7.31363" x2="49.5312" y2="28.8134" gradientUnits="userSpaceOnUse">
<stop stop-color="#E62174"/>
<stop offset="1" stop-color="#EE7B65"/>
</linearGradient>
</defs>
</svg>
