<?xml version="1.0" standalone="no"?>
<!DOCTYPE svg PUBLIC "-//W3C//DTD SVG 20010904//EN"
 "http://www.w3.org/TR/2001/REC-SVG-20010904/DTD/svg10.dtd">
<svg version="1.0" xmlns="http://www.w3.org/2000/svg"
 width="131.000000pt" height="131.000000pt" viewBox="0 0 131.000000 131.000000"
 preserveAspectRatio="xMidYMid meet">
<metadata>
Created by potrace 1.14, written by Peter Selinger 2001-2017
</metadata>
<g transform="translate(0.000000,131.000000) scale(0.100000,-0.100000)"
fill="#000000" stroke="none">
<path d="M420 1219 c0 -57 59 -151 147 -232 50 -47 200 -147 219 -147 7 0 29
-15 48 -34 62 -58 43 -125 -67 -239 -57 -59 -73 -106 -57 -165 9 -35 20 -49
58 -73 40 -25 56 -30 107 -28 108 4 187 57 177 121 -2 9 13 29 33 45 19 15 35
32 35 36 0 5 -23 31 -51 58 -47 46 -51 53 -46 86 4 20 15 44 27 55 28 26 25
44 -9 64 -31 18 -51 52 -51 84 0 31 -36 45 -66 25 -13 -8 -24 -19 -24 -23 0
-17 32 -52 49 -52 29 0 58 -42 57 -83 -1 -20 -7 -42 -14 -49 -7 -7 -12 -9 -12
-5 0 4 -9 3 -20 -3 -23 -12 -26 -46 -6 -69 8 -9 17 -41 21 -71 l7 -54 -23 15
c-13 9 -27 30 -31 47 -5 18 -13 32 -17 32 -5 0 -16 3 -24 6 -16 6 -47 -20 -47
-41 0 -21 29 -45 54 -45 20 0 66 -37 66 -53 0 -13 -57 -7 -86 8 -26 13 -30 13
-41 -2 -19 -24 -16 -40 9 -57 19 -14 24 -14 38 -1 21 19 69 19 94 0 28 -21 14
-29 -63 -33 -49 -3 -77 0 -99 12 -31 16 -60 59 -56 84 1 6 2 18 3 25 0 7 26
40 57 73 157 166 152 275 -16 359 -154 77 -291 191 -338 280 -36 67 -42 74
-42 44z m635 -710 c3 -17 -2 -28 -15 -37 -24 -15 -25 -12 -35 63 l-6 50 26
-26 c14 -14 28 -36 30 -50z"/>
<path d="M336 1108 c-38 -77 -54 -140 -52 -207 2 -37 0 -40 -21 -35 -30 8 -29
-9 1 -33 22 -18 23 -21 10 -46 -8 -15 -18 -27 -23 -27 -4 0 -24 -16 -44 -35
l-37 -36 20 -40 c15 -27 18 -45 11 -56 -10 -18 5 -63 21 -63 5 0 4 -9 -2 -19
-7 -14 -7 -28 1 -48 6 -15 12 -48 13 -72 4 -88 73 -111 211 -68 71 22 136 18
166 -9 25 -22 81 -131 99 -192 12 -40 23 -51 33 -34 7 13 -24 144 -43 182 -28
55 -70 101 -105 115 -30 12 -95 13 -133 1 -11 -4 -29 -9 -39 -11 -10 -2 -34
-9 -53 -14 -63 -20 -81 -9 -87 50 -2 24 -9 51 -14 61 -6 12 -6 25 1 38 9 16 6
22 -15 36 -21 13 -25 22 -20 43 3 15 -1 43 -9 63 -15 36 -15 36 14 48 35 15
89 73 91 98 1 9 2 58 3 107 2 90 12 132 47 213 23 50 24 62 6 62 -8 0 -30 -33
-51 -72z"/>
<path d="M390 1100 c0 -63 112 -203 213 -267 66 -41 97 -74 97 -102 0 -36 -33
-87 -92 -140 -91 -83 -103 -129 -42 -162 34 -18 40 -5 14 28 l-22 28 30 25
c16 14 49 40 72 59 55 45 100 115 100 158 0 52 -39 98 -136 162 -92 60 -173
139 -200 197 -18 38 -34 44 -34 14z"/>
</g>
</svg>
