<svg width="180" height="52" viewBox="0 0 180 52" fill="none" xmlns="http://www.w3.org/2000/svg">
<path d="M179 46.0031C179 48.7742 176.709 51.0189 173.874 51.0189H6.13243C3.2995 51.0189 1 48.7742 1 46.0031V6.00351C1 3.23368 3.2995 0.98114 6.13243 0.98114H173.873C176.709 0.98114 178.999 3.23368 178.999 6.00351L179 46.0031Z" fill="black"/>
<path d="M173.333 1.04162C176.42 1.04162 178.932 3.4905 178.932 6.5V45.5C178.932 48.5095 176.42 50.9584 173.333 50.9584H6.66667C3.58 50.9584 1.06833 48.5095 1.06833 45.5V6.5C1.06833 3.4905 3.58 1.04162 6.66667 1.04162H173.333ZM173.333 2.74817e-06H6.66667C3.00167 2.74817e-06 0 2.92663 0 6.5V45.5C0 49.0734 3.00167 52 6.66667 52H173.333C176.998 52 180 49.0734 180 45.5V6.5C180 2.92663 176.998 2.74817e-06 173.333 2.74817e-06Z" fill="white" fill-opacity="0.2"/>
<path d="M40.1714 25.7192C40.1328 21.5293 43.6901 19.4909 43.8528 19.396C41.8381 16.5321 38.7154 16.1408 37.6181 16.1096C34.9954 15.8405 32.4514 17.6397 31.1154 17.6397C29.7528 17.6397 27.6954 16.1356 25.4781 16.1798C22.6248 16.2227 19.9554 17.8334 18.4914 20.3346C15.4701 25.4345 17.7234 32.929 20.6181 37.0513C22.0661 39.0702 23.7581 41.3244 25.9728 41.2451C28.1394 41.158 28.9488 39.8983 31.5634 39.8983C34.1541 39.8983 34.9141 41.2451 37.1728 41.1944C39.4981 41.158 40.9621 39.1664 42.3594 37.1293C44.0328 34.8153 44.7048 32.5364 44.7314 32.4194C44.6768 32.4012 40.2154 30.7411 40.1714 25.7192Z" fill="white"/>
<path d="M35.9048 13.3978C37.0701 11.9769 37.8674 10.0438 37.6461 8.08209C35.9594 8.15489 33.8501 9.21959 32.6354 10.6093C31.5608 11.8339 30.6008 13.8411 30.8488 15.7287C32.7434 15.8665 34.6888 14.7966 35.9048 13.3978Z" fill="white"/>
<path d="M65.3997 13.0117C65.3997 14.5418 64.9291 15.6936 63.989 16.4671C63.1184 17.1808 61.881 17.5383 60.2784 17.5383C59.4837 17.5383 58.8037 17.5045 58.2344 17.4369V9.07664C58.977 8.95964 59.777 8.89984 60.641 8.89984C62.1677 8.89984 63.3184 9.22354 64.0944 9.87094C64.9637 10.6028 65.3997 11.6493 65.3997 13.0117ZM63.9264 13.0494C63.9264 12.0575 63.657 11.297 63.1184 10.7666C62.5797 10.2375 61.793 9.97234 60.757 9.97234C60.317 9.97234 59.9424 10.0009 59.6317 10.0607V16.4164C59.8037 16.4424 60.1184 16.4541 60.5757 16.4541C61.645 16.4541 62.4704 16.1642 63.0517 15.5844C63.6331 15.0046 63.9264 14.1596 63.9264 13.0494Z" fill="white"/>
<path d="M73.2126 14.3482C73.2126 15.2907 72.9366 16.0629 72.3846 16.6687C71.806 17.2914 71.0393 17.6021 70.082 17.6021C69.1593 17.6021 68.4246 17.3044 67.8766 16.7064C67.33 16.1097 67.0566 15.357 67.0566 14.4496C67.0566 13.5006 67.338 12.7219 67.9033 12.1174C68.4686 11.5129 69.2286 11.21 70.186 11.21C71.1086 11.21 71.85 11.5077 72.4113 12.1044C72.9446 12.6842 73.2126 13.433 73.2126 14.3482ZM71.7633 14.3924C71.7633 13.8269 71.638 13.342 71.3886 12.9377C71.0953 12.4489 70.678 12.2045 70.1353 12.2045C69.574 12.2045 69.1473 12.4489 68.854 12.9377C68.6033 13.342 68.4793 13.8347 68.4793 14.4171C68.4793 14.9826 68.6046 15.4675 68.854 15.8718C69.1566 16.3606 69.578 16.605 70.122 16.605C70.6553 16.605 71.074 16.3567 71.3753 15.8588C71.634 15.4467 71.7633 14.9579 71.7633 14.3924Z" fill="white"/>
<path d="M83.6867 11.3347L81.7201 17.4629H80.4401L79.6254 14.8018C79.4187 14.1375 79.2507 13.4771 79.1201 12.8219H79.0947C78.9734 13.4953 78.8054 14.1544 78.5894 14.8018L77.7241 17.4629H76.4294L74.5801 11.3347H76.0161L76.7267 14.248C76.8987 14.937 77.0401 15.5935 77.1534 16.2149H77.1787C77.2827 15.7027 77.4547 15.0501 77.6974 14.261L78.5894 11.336H79.7281L80.5827 14.1986C80.7894 14.8967 80.9574 15.5688 81.0867 16.2162H81.1254C81.2201 15.5857 81.3627 14.9136 81.5521 14.1986L82.3147 11.336H83.6867V11.3347Z" fill="white"/>
<path d="M90.9312 17.463H89.5339V13.953C89.5339 12.8714 89.1125 12.3306 88.2672 12.3306C87.8525 12.3306 87.5179 12.4788 87.2579 12.7765C87.0005 13.0742 86.8699 13.4252 86.8699 13.8269V17.4617H85.4725V13.0859C85.4725 12.5477 85.4552 11.964 85.4219 11.3322H86.6499L86.7152 12.2903H86.7539C86.9165 11.9926 87.1592 11.7469 87.4779 11.5506C87.8565 11.3218 88.2805 11.2061 88.7445 11.2061C89.3312 11.2061 89.8192 11.3907 90.2072 11.7612C90.6899 12.2149 90.9312 12.8922 90.9312 13.7918V17.463Z" fill="white"/>
<path d="M94.7847 17.4629H93.3887V8.52283H94.7847V17.4629Z" fill="white"/>
<path d="M103.01 14.3482C103.01 15.2907 102.734 16.0629 102.182 16.6687C101.603 17.2914 100.835 17.6021 99.8789 17.6021C98.9549 17.6021 98.2202 17.3044 97.6735 16.7064C97.1268 16.1097 96.8535 15.357 96.8535 14.4496C96.8535 13.5006 97.1349 12.7219 97.7002 12.1174C98.2655 11.5129 99.0255 11.21 99.9815 11.21C100.906 11.21 101.646 11.5077 102.208 12.1044C102.742 12.6842 103.01 13.433 103.01 14.3482ZM101.559 14.3924C101.559 13.8269 101.434 13.342 101.184 12.9377C100.892 12.4489 100.474 12.2045 99.9322 12.2045C99.3695 12.2045 98.9428 12.4489 98.6508 12.9377C98.4002 13.342 98.2762 13.8347 98.2762 14.4171C98.2762 14.9826 98.4015 15.4675 98.6508 15.8718C98.9535 16.3606 99.3749 16.605 99.9189 16.605C100.452 16.605 100.87 16.3567 101.171 15.8588C101.431 15.4467 101.559 14.9579 101.559 14.3924Z" fill="white"/>
<path d="M109.773 17.463H108.519L108.415 16.7571H108.376C107.947 17.32 107.335 17.6021 106.54 17.6021C105.947 17.6021 105.467 17.4162 105.105 17.047C104.777 16.7116 104.613 16.2943 104.613 15.799C104.613 15.0502 104.933 14.4795 105.577 14.0843C106.22 13.6891 107.124 13.4954 108.288 13.5045V13.3901C108.288 12.5828 107.853 12.1798 106.983 12.1798C106.363 12.1798 105.816 12.3319 105.344 12.6335L105.06 11.7391C105.644 11.3868 106.365 11.21 107.216 11.21C108.859 11.21 109.683 12.055 109.683 13.745V16.0018C109.683 16.6141 109.713 17.1016 109.773 17.463ZM108.323 15.357V14.4119C106.781 14.3859 106.011 14.798 106.011 15.6469C106.011 15.9667 106.099 16.2059 106.279 16.3658C106.459 16.5257 106.688 16.605 106.961 16.605C107.268 16.605 107.555 16.5101 107.816 16.3216C108.079 16.1318 108.24 15.8913 108.3 15.5962C108.315 15.5299 108.323 15.4493 108.323 15.357Z" fill="white"/>
<path d="M117.713 17.4629H116.473L116.408 16.4788H116.369C115.973 17.2276 115.298 17.602 114.35 17.602C113.593 17.602 112.962 17.3121 112.462 16.7323C111.962 16.1525 111.713 15.3998 111.713 14.4755C111.713 13.4836 111.984 12.6802 112.528 12.0666C113.054 11.4946 113.7 11.2086 114.468 11.2086C115.312 11.2086 115.902 11.4855 116.238 12.0406H116.265V8.52283H117.664V15.8119C117.664 16.4086 117.68 16.9585 117.713 17.4629ZM116.265 14.8785V13.8567C116.265 13.6799 116.252 13.5369 116.226 13.4277C116.148 13.1001 115.978 12.8245 115.721 12.6022C115.461 12.3799 115.148 12.2681 114.786 12.2681C114.265 12.2681 113.857 12.4696 113.557 12.8739C113.26 13.2782 113.109 13.7943 113.109 14.4248C113.109 15.0306 113.252 15.522 113.538 15.9003C113.841 16.3033 114.249 16.5048 114.76 16.5048C115.218 16.5048 115.585 16.3371 115.864 16.0004C116.133 15.6897 116.265 15.3153 116.265 14.8785Z" fill="white"/>
<path d="M129.664 14.3482C129.664 15.2907 129.388 16.0629 128.836 16.6687C128.257 17.2914 127.492 17.6021 126.533 17.6021C125.612 17.6021 124.877 17.3044 124.328 16.7064C123.781 16.1097 123.508 15.357 123.508 14.4496C123.508 13.5006 123.789 12.7219 124.354 12.1174C124.92 11.5129 125.68 11.21 126.638 11.21C127.56 11.21 128.302 11.5077 128.862 12.1044C129.396 12.6842 129.664 13.433 129.664 14.3482ZM128.216 14.3924C128.216 13.8269 128.09 13.342 127.841 12.9377C127.546 12.4489 127.13 12.2045 126.586 12.2045C126.026 12.2045 125.6 12.4489 125.305 12.9377C125.054 13.342 124.93 13.8347 124.93 14.4171C124.93 14.9826 125.056 15.4675 125.305 15.8718C125.608 16.3606 126.029 16.605 126.573 16.605C127.106 16.605 127.526 16.3567 127.828 15.8588C128.085 15.4467 128.216 14.9579 128.216 14.3924Z" fill="white"/>
<path d="M137.178 17.463H135.782V13.953C135.782 12.8714 135.361 12.3306 134.514 12.3306C134.099 12.3306 133.765 12.4788 133.506 12.7765C133.247 13.0742 133.118 13.4252 133.118 13.8269V17.4617H131.719V13.0859C131.719 12.5477 131.703 11.964 131.67 11.3322H132.897L132.962 12.2903H133.001C133.165 11.9926 133.407 11.7469 133.725 11.5506C134.105 11.3218 134.527 11.2061 134.993 11.2061C135.578 11.2061 136.066 11.3907 136.454 11.7612C136.938 12.2149 137.178 12.8922 137.178 13.7918V17.463Z" fill="white"/>
<path d="M146.582 12.3552H145.043V15.3322C145.043 16.0888 145.317 16.4671 145.858 16.4671C146.109 16.4671 146.317 16.4463 146.481 16.4034L146.517 17.4369C146.241 17.5383 145.878 17.589 145.431 17.589C144.879 17.589 144.45 17.4252 144.139 17.0976C143.827 16.77 143.673 16.2188 143.673 15.4453V12.3552H142.754V11.3347H143.673V10.2115L145.042 9.80853V11.3334H146.581V12.3552H146.582Z" fill="white"/>
<path d="M153.978 17.4629H152.58V13.9789C152.58 12.8804 152.158 12.3305 151.314 12.3305C150.666 12.3305 150.224 12.649 149.981 13.286C149.94 13.4199 149.916 13.5837 149.916 13.7761V17.4616H148.52V8.52283H149.916V12.2161H149.942C150.382 11.544 151.013 11.2086 151.83 11.2086C152.409 11.2086 152.888 11.3932 153.268 11.7637C153.741 12.2252 153.978 12.9116 153.978 13.819V17.4629Z" fill="white"/>
<path d="M161.609 14.1089C161.609 14.3533 161.591 14.5587 161.557 14.7264H157.367C157.385 15.3322 157.585 15.7937 157.973 16.1135C158.328 16.3995 158.785 16.5425 159.345 16.5425C159.965 16.5425 160.531 16.4463 161.04 16.2526L161.259 17.199C160.663 17.4512 159.961 17.5773 159.149 17.5773C158.176 17.5773 157.409 17.2978 156.855 16.7388C156.297 16.1798 156.021 15.4297 156.021 14.4885C156.021 13.5642 156.279 12.7946 156.797 12.181C157.339 11.5258 158.071 11.1982 158.995 11.1982C159.899 11.1982 160.585 11.5258 161.049 12.181C161.424 12.701 161.609 13.3445 161.609 14.1089ZM160.276 13.7566C160.287 13.3523 160.195 13.0039 160.005 12.7101C159.763 12.3318 159.393 12.142 158.893 12.142C158.437 12.142 158.065 12.3266 157.781 12.6971C157.549 12.9922 157.412 13.3445 157.367 13.7566H160.276Z" fill="white"/>
<path d="M71.5269 40.9552H68.4989L66.8402 35.8735H61.0749L59.4949 40.9552H56.5469L62.2589 23.6548H65.7869L71.5269 40.9552ZM66.3402 33.7415L64.8402 29.224C64.6815 28.7625 64.3842 27.6757 63.9455 25.9649H63.8922C63.7175 26.7007 63.4362 27.7875 63.0495 29.224L61.5762 33.7415H66.3402Z" fill="white"/>
<path d="M86.2159 34.5644C86.2159 36.686 85.6279 38.363 84.4519 39.5941C83.3985 40.69 82.0905 41.2373 80.5292 41.2373C78.8439 41.2373 77.6332 40.6471 76.8959 39.4667H76.8425V46.0382H73.9999V32.5871C73.9999 31.2533 73.9639 29.8844 73.8945 28.4804H76.3945L76.5532 30.4577H76.6065C77.5545 28.9679 78.9932 28.2243 80.9239 28.2243C82.4332 28.2243 83.6932 28.8054 84.7012 29.9689C85.7119 31.1337 86.2159 32.6651 86.2159 34.5644ZM83.3199 34.6658C83.3199 33.4516 83.0399 32.4506 82.4772 31.6628C81.8625 30.8412 81.0372 30.4304 80.0025 30.4304C79.3012 30.4304 78.6639 30.6592 78.0945 31.1103C77.5239 31.5653 77.1505 32.1594 76.9759 32.8952C76.8879 33.2384 76.8439 33.5192 76.8439 33.7402V35.8202C76.8439 36.7276 77.1292 37.4933 77.6999 38.1186C78.2705 38.7439 79.0119 39.0559 79.9239 39.0559C80.9945 39.0559 81.8279 38.6529 82.4239 37.8495C83.0212 37.0448 83.3199 35.984 83.3199 34.6658Z" fill="white"/>
<path d="M100.931 34.5644C100.931 36.686 100.343 38.363 99.166 39.5941C98.114 40.69 96.806 41.2373 95.2447 41.2373C93.5593 41.2373 92.3487 40.6471 91.6127 39.4667H91.5593V46.0382H88.7167V32.5871C88.7167 31.2533 88.6807 29.8844 88.6113 28.4804H91.1113L91.27 30.4577H91.3233C92.27 28.9679 93.7087 28.2243 95.6407 28.2243C97.1487 28.2243 98.4087 28.8054 99.4193 29.9689C100.426 31.1337 100.931 32.6651 100.931 34.5644ZM98.0353 34.6658C98.0353 33.4516 97.754 32.4506 97.1913 31.6628C96.5767 30.8412 95.754 30.4304 94.718 30.4304C94.0153 30.4304 93.3793 30.6592 92.8087 31.1103C92.238 31.5653 91.866 32.1594 91.6913 32.8952C91.6047 33.2384 91.5593 33.5192 91.5593 33.7402V35.8202C91.5593 36.7276 91.8447 37.4933 92.4127 38.1186C92.9833 38.7426 93.7247 39.0559 94.6393 39.0559C95.71 39.0559 96.5433 38.6529 97.1393 37.8495C97.7367 37.0448 98.0353 35.984 98.0353 34.6658Z" fill="white"/>
<path d="M117.387 36.1036C117.387 37.5752 116.863 38.7725 115.811 39.6968C114.655 40.7069 113.046 41.2113 110.978 41.2113C109.068 41.2113 107.538 40.8525 106.379 40.1336L107.038 37.8235C108.286 38.5593 109.655 38.9285 111.147 38.9285C112.218 38.9285 113.051 38.6919 113.65 38.2213C114.246 37.7507 114.543 37.1189 114.543 36.3311C114.543 35.6291 114.298 35.0376 113.806 34.5579C113.316 34.0782 112.499 33.6323 111.358 33.2202C108.251 32.0905 106.699 30.4356 106.699 28.2594C106.699 26.8372 107.243 25.6711 108.332 24.7637C109.418 23.855 110.866 23.4013 112.676 23.4013C114.291 23.4013 115.632 23.6756 116.703 24.2229L115.992 26.4823C114.992 25.9519 113.862 25.6867 112.596 25.6867C111.596 25.6867 110.815 25.9272 110.255 26.4056C109.782 26.8333 109.544 27.3546 109.544 27.9721C109.544 28.6559 109.815 29.2214 110.359 29.666C110.832 30.0768 111.692 30.5214 112.94 31.0011C114.467 31.6004 115.588 32.3011 116.31 33.1045C117.028 33.9053 117.387 34.9076 117.387 36.1036Z" fill="white"/>
<path d="M126.784 30.5604H123.651V36.6171C123.651 38.1576 124.203 38.9272 125.31 38.9272C125.818 38.9272 126.239 38.8843 126.572 38.7985L126.651 40.9032C126.091 41.1073 125.354 41.21 124.44 41.21C123.318 41.21 122.44 40.8759 121.807 40.209C121.176 39.5408 120.859 38.4202 120.859 36.8459V30.5578H118.992V28.4778H120.859V26.1937L123.651 25.3721V28.4778H126.784V30.5604Z" fill="white"/>
<path d="M140.921 34.6151C140.921 36.5326 140.358 38.1069 139.235 39.338C138.058 40.6055 136.495 41.2373 134.547 41.2373C132.67 41.2373 131.175 40.6302 130.061 39.416C128.946 38.2018 128.389 36.6691 128.389 34.8218C128.389 32.8887 128.962 31.3053 130.113 30.0742C131.261 28.8418 132.81 28.2256 134.758 28.2256C136.635 28.2256 138.146 28.8327 139.286 30.0482C140.377 31.2273 140.921 32.7496 140.921 34.6151ZM137.971 34.7048C137.971 33.5543 137.719 32.5676 137.209 31.7447C136.613 30.7489 135.761 30.2523 134.657 30.2523C133.514 30.2523 132.646 30.7502 132.05 31.7447C131.539 32.5689 131.287 33.5712 131.287 34.7568C131.287 35.9073 131.539 36.894 132.05 37.7156C132.665 38.7114 133.523 39.208 134.631 39.208C135.717 39.208 136.569 38.701 137.183 37.6896C137.707 36.8511 137.971 35.854 137.971 34.7048Z" fill="white"/>
<path d="M150.162 30.9179C149.88 30.8672 149.58 30.8412 149.266 30.8412C148.266 30.8412 147.492 31.2091 146.948 31.9462C146.475 32.5962 146.238 33.4178 146.238 34.4097V40.9552H143.396L143.423 32.409C143.423 30.9712 143.387 29.6621 143.316 28.4817H145.792L145.896 30.8685H145.975C146.275 30.0482 146.748 29.3878 147.396 28.8925C148.03 28.4466 148.714 28.2243 149.451 28.2243C149.714 28.2243 149.951 28.2425 150.162 28.275V30.9179Z" fill="white"/>
<path d="M162.875 34.1276C162.875 34.6242 162.841 35.0428 162.771 35.3847H154.243C154.276 36.6171 154.688 37.5596 155.48 38.2096C156.199 38.7907 157.128 39.0819 158.269 39.0819C159.532 39.0819 160.684 38.8856 161.72 38.4917L162.165 40.4157C160.955 40.9305 159.525 41.1866 157.876 41.1866C155.892 41.1866 154.335 40.6172 153.201 39.4797C152.071 38.3422 151.504 36.8147 151.504 34.8985C151.504 33.0174 152.031 31.4509 153.085 30.2016C154.189 28.8678 155.681 28.2009 157.559 28.2009C159.403 28.2009 160.799 28.8678 161.747 30.2016C162.497 31.2611 162.875 32.5715 162.875 34.1276ZM160.164 33.4087C160.183 32.5871 159.997 31.8773 159.612 31.278C159.12 30.5071 158.364 30.1223 157.347 30.1223C156.417 30.1223 155.661 30.498 155.084 31.252C154.611 31.8513 154.329 32.5702 154.243 33.4074H160.164V33.4087Z" fill="white"/>
</svg>
