<svg width="182" height="53" viewBox="0 0 182 53" fill="none" xmlns="http://www.w3.org/2000/svg">
<path d="M175.259 52.5778H6.74074C3.03502 52.5778 0 49.6186 0 46.0055V6.57221C0 2.95912 3.03502 -1.83096e-05 6.74074 -1.83096e-05H175.259C178.965 -1.83096e-05 182 2.95912 182 6.57221V46.0055C182 49.6186 178.965 52.5778 175.259 52.5778Z" fill="black"/>
<path d="M175.259 1.05318C178.38 1.05318 180.92 3.52927 180.92 6.57221V46.0055C180.92 49.0485 178.38 51.5246 175.259 51.5246H6.74074C3.61978 51.5246 1.0802 49.0485 1.0802 46.0055V6.57221C1.0802 3.52927 3.61978 1.05318 6.74074 1.05318H175.259ZM175.259 -1.83096e-05H6.74074C3.03502 -1.83096e-05 0 2.95912 0 6.57221V46.0055C0 49.6186 3.03502 52.5778 6.74074 52.5778H175.259C178.965 52.5778 182 49.6186 182 46.0055V6.57221C182 2.95912 178.965 -1.83096e-05 175.259 -1.83096e-05Z" fill="white" fill-opacity="0.2"/>
<path d="M14.0661 9.90919C13.6701 10.3134 13.4409 10.9427 13.4409 11.7576V40.8266C13.4409 41.6415 13.6701 42.2708 14.0661 42.675L14.1639 42.7637L30.8708 26.4811V26.0966L14.1639 9.81389L14.0661 9.90919Z" fill="url(#paint0_linear_47_30880)"/>
<path d="M36.4339 31.9114L30.8711 26.4811V26.0967L36.4406 20.6664L36.5653 20.737L43.1611 24.3961C45.0435 25.4345 45.0435 27.1433 43.1611 28.1883L36.5653 31.8408L36.4339 31.9114Z" fill="url(#paint1_linear_47_30880)"/>
<path d="M36.5648 31.8408L30.8706 26.2889L14.0659 42.6751C14.6911 43.3159 15.7107 43.3931 16.8701 42.7523L36.5648 31.8408Z" fill="url(#paint2_linear_47_30880)"/>
<path d="M36.5648 20.737L16.8701 9.82547C15.7107 9.19125 14.6911 9.26847 14.0659 9.90926L30.8706 26.2889L36.5648 20.737Z" fill="url(#paint3_linear_47_30880)"/>
<path d="M63.9246 13.4648C63.9246 14.5624 63.5875 15.4414 62.9236 16.097C62.1602 16.8741 61.1659 17.2652 59.9475 17.2652C58.7831 17.2652 57.7888 16.8676 56.9732 16.0838C56.1559 15.2886 55.748 14.3126 55.748 13.1444C55.748 11.9762 56.1559 11.0002 56.9732 10.2116C57.7888 9.42124 58.7831 9.02362 59.9475 9.02362C60.5272 9.02362 61.08 9.14028 61.6074 9.35716C62.1332 9.57569 62.5612 9.87144 62.8713 10.2362L62.1669 10.9296C61.626 10.3068 60.8895 9.9996 59.9475 9.9996C59.0982 9.9996 58.3618 10.2888 57.7366 10.8721C57.1181 11.457 56.808 12.2144 56.808 13.1444C56.808 14.0744 57.1181 14.8384 57.7366 15.4233C58.3618 16 59.0982 16.2958 59.9475 16.2958C60.8491 16.2958 61.6074 16 62.2057 15.4167C62.6 15.0306 62.8241 14.4983 62.8831 13.8181H59.9475V12.8684H63.8639C63.9111 13.0738 63.9246 13.2726 63.9246 13.4648Z" fill="white" stroke="white" stroke-width="0.161778" stroke-miterlimit="10"/>
<path d="M70.1382 10.1722H66.4594V12.6696H69.7759V13.6193H66.4594V16.1167H70.1382V17.0845H65.418V9.20441H70.1382V10.1722Z" fill="white" stroke="white" stroke-width="0.161778" stroke-miterlimit="10"/>
<path d="M74.5225 17.0845H73.4811V10.1722H71.2246V9.20441H76.7807V10.1722H74.5225V17.0845Z" fill="white" stroke="white" stroke-width="0.161778" stroke-miterlimit="10"/>
<path d="M80.8008 17.0845V9.20441H81.8405V17.0845H80.8008Z" fill="white" stroke="white" stroke-width="0.161778" stroke-miterlimit="10"/>
<path d="M86.4507 17.0845H85.4177V10.1722H83.1528V9.20441H88.7156V10.1722H86.4507V17.0845Z" fill="white" stroke="white" stroke-width="0.161778" stroke-miterlimit="10"/>
<path d="M99.2346 16.0707C98.4375 16.8676 97.45 17.2652 96.272 17.2652C95.0874 17.2652 94.0998 16.8676 93.3028 16.0707C92.5073 15.2754 92.1113 14.2995 92.1113 13.1444C92.1113 11.9893 92.5073 11.0134 93.3028 10.2181C94.0998 9.42124 95.0874 9.02362 96.272 9.02362C97.4433 9.02362 98.4308 9.42124 99.2279 10.2247C100.03 11.0265 100.426 11.9959 100.426 13.1444C100.426 14.2995 100.03 15.2754 99.2346 16.0707ZM94.0729 15.4102C94.6728 16 95.4025 16.2958 96.272 16.2958C97.1349 16.2958 97.8713 16 98.4645 15.4102C99.0627 14.8203 99.366 14.0629 99.366 13.1444C99.366 12.2259 99.0627 11.4685 98.4645 10.8786C97.8713 10.2888 97.1349 9.99302 96.272 9.99302C95.4025 9.99302 94.6728 10.2888 94.0729 10.8786C93.4746 11.4685 93.1713 12.2259 93.1713 13.1444C93.1713 14.0629 93.4746 14.8203 94.0729 15.4102Z" fill="white" stroke="white" stroke-width="0.161778" stroke-miterlimit="10"/>
<path d="M101.887 17.0845V9.20441H103.151L107.08 15.333H107.126L107.08 13.8181V9.20441H108.12V17.0845H107.035L102.92 10.6536H102.874L102.92 12.175V17.0845H101.887Z" fill="white" stroke="white" stroke-width="0.161778" stroke-miterlimit="10"/>
<path d="M91.8562 28.5924C88.6897 28.5924 86.103 30.942 86.103 34.1838C86.103 37.3992 88.6897 39.7734 91.8562 39.7734C95.0294 39.7734 97.6161 37.3992 97.6161 34.1838C97.6161 30.942 95.0294 28.5924 91.8562 28.5924ZM91.8562 37.5717C90.1188 37.5717 88.624 36.1735 88.624 34.1838C88.624 32.1677 90.1188 30.7941 91.8562 30.7941C93.5936 30.7941 95.0951 32.1677 95.0951 34.1838C95.0951 36.1735 93.5936 37.5717 91.8562 37.5717ZM79.3032 28.5924C76.13 28.5924 73.55 30.942 73.55 34.1838C73.55 37.3992 76.13 39.7734 79.3032 39.7734C82.4748 39.7734 85.0565 37.3992 85.0565 34.1838C85.0565 30.942 82.4748 28.5924 79.3032 28.5924ZM79.3032 37.5717C77.5641 37.5717 76.0643 36.1735 76.0643 34.1838C76.0643 32.1677 77.5641 30.7941 79.3032 30.7941C81.0407 30.7941 82.5354 32.1677 82.5354 34.1838C82.5354 36.1735 81.0407 37.5717 79.3032 37.5717ZM64.3658 30.3062V32.682H70.1847C70.0145 34.0096 69.5595 34.9856 68.8618 35.6658C68.0125 36.4873 66.6896 37.3992 64.3658 37.3992C60.7848 37.3992 57.9806 34.5814 57.9806 31.0899C57.9806 27.5984 60.7848 24.7806 64.3658 24.7806C66.302 24.7806 67.7109 25.5183 68.7506 26.4745L70.4678 24.8003C69.0135 23.4464 67.0789 22.4063 64.3658 22.4063C59.4551 22.4063 55.3281 26.302 55.3281 31.0899C55.3281 35.8778 59.4551 39.7734 64.3658 39.7734C67.0199 39.7734 69.0135 38.9256 70.5807 37.3351C72.1867 35.7693 72.6872 33.5676 72.6872 31.7898C72.6872 31.2378 72.64 30.7301 72.5558 30.3062H64.3658ZM125.447 32.148C124.973 30.8977 123.512 28.5924 120.536 28.5924C117.587 28.5924 115.132 30.8582 115.132 34.1838C115.132 37.3154 117.562 39.7734 120.819 39.7734C123.453 39.7734 124.973 38.2076 125.599 37.2957L123.644 36.0256C122.992 36.9556 122.104 37.5717 120.819 37.5717C119.544 37.5717 118.629 37.0016 118.042 35.8778L125.712 32.7839L125.447 32.148ZM117.628 34.0096C117.562 31.8539 119.345 30.7498 120.622 30.7498C121.623 30.7498 122.473 31.2378 122.756 31.9361L117.628 34.0096ZM111.394 39.4333H113.915V23.0028H111.394V39.4333ZM107.266 29.8379H107.181C106.615 29.1839 105.535 28.5924 104.166 28.5924C101.295 28.5924 98.6694 31.0505 98.6694 34.2018C98.6694 37.3351 101.295 39.7734 104.166 39.7734C105.535 39.7734 106.615 39.177 107.181 38.5034H107.266V39.3052C107.266 41.4428 106.094 42.5913 104.205 42.5913C102.665 42.5913 101.709 41.5069 101.315 40.595L99.1227 41.4871C99.7546 42.9692 101.428 44.793 104.205 44.793C107.161 44.793 109.655 43.0973 109.655 38.9716V28.9326H107.266V29.8379ZM104.382 37.5717C102.645 37.5717 101.19 36.1538 101.19 34.2018C101.19 32.2318 102.645 30.7941 104.382 30.7941C106.094 30.7941 107.444 32.2318 107.444 34.2018C107.444 36.1538 106.094 37.5717 104.382 37.5717ZM137.25 23.0028H131.22V39.4333H133.735V33.2078H137.25C140.042 33.2078 142.781 31.2378 142.781 28.1045C142.781 24.9728 140.036 23.0028 137.25 23.0028ZM137.316 30.9223H133.735V25.2883H137.316C139.193 25.2883 140.265 26.8081 140.265 28.1045C140.265 29.3762 139.193 30.9223 137.316 30.9223ZM152.858 28.5612C151.042 28.5612 149.152 29.3433 148.376 31.0767L150.607 31.9886C151.087 31.0767 151.97 30.781 152.904 30.781C154.208 30.781 155.531 31.545 155.551 32.894V33.0665C155.096 32.8102 154.122 32.4306 152.924 32.4306C150.521 32.4306 148.072 33.7204 148.072 36.1275C148.072 38.3292 150.041 39.7471 152.253 39.7471C153.945 39.7471 154.879 39.0028 155.465 38.137H155.551V39.407H157.979V33.1043C157.979 30.1911 155.748 28.5612 152.858 28.5612ZM152.555 37.5652C151.732 37.5652 150.587 37.1676 150.587 36.1735C150.587 34.9018 152.016 34.4138 153.253 34.4138C154.36 34.4138 154.879 34.652 155.551 34.9659C155.354 36.4873 154.011 37.5652 152.555 37.5652ZM166.827 28.9211L163.937 36.0437H163.851L160.863 28.9211H158.151L162.641 38.8747L160.079 44.4134H162.706L169.624 28.9211H166.827ZM144.163 39.4333H146.684V23.0028H144.163V39.4333Z" fill="white"/>
<defs>
<linearGradient id="paint0_linear_47_30880" x1="29.3874" y1="41.1293" x2="7.33494" y2="18.5114" gradientUnits="userSpaceOnUse">
<stop stop-color="#00A0FF"/>
<stop offset="0.0066" stop-color="#00A1FF"/>
<stop offset="0.2601" stop-color="#00BEFF"/>
<stop offset="0.5122" stop-color="#00D2FF"/>
<stop offset="0.7604" stop-color="#00DFFF"/>
<stop offset="1" stop-color="#00E3FF"/>
</linearGradient>
<linearGradient id="paint1_linear_47_30880" x1="45.6123" y1="26.2871" x2="12.9913" y2="26.2871" gradientUnits="userSpaceOnUse">
<stop stop-color="#FFE000"/>
<stop offset="0.4087" stop-color="#FFBD00"/>
<stop offset="0.7754" stop-color="#FFA500"/>
<stop offset="1" stop-color="#FF9C00"/>
</linearGradient>
<linearGradient id="paint2_linear_47_30880" x1="33.4685" y1="23.2708" x2="3.56353" y2="-7.40091" gradientUnits="userSpaceOnUse">
<stop stop-color="#FF3A44"/>
<stop offset="1" stop-color="#C31162"/>
</linearGradient>
<linearGradient id="paint3_linear_47_30880" x1="9.83583" y1="52.3462" x2="23.1897" y2="38.65" gradientUnits="userSpaceOnUse">
<stop stop-color="#32A071"/>
<stop offset="0.0685" stop-color="#2DA771"/>
<stop offset="0.4762" stop-color="#15CF74"/>
<stop offset="0.8009" stop-color="#06E775"/>
<stop offset="1" stop-color="#00F076"/>
</linearGradient>
</defs>
</svg>
